<?xml version="1.0" standalone="no"?>
<!DOCTYPE svg PUBLIC "-//W3C//DTD SVG 20010904//EN"
 "http://www.w3.org/TR/2001/REC-SVG-20010904/DTD/svg10.dtd">
<svg version="1.0" xmlns="http://www.w3.org/2000/svg"
 width="1024.000000pt" height="1024.000000pt" viewBox="0 0 1024.000000 1024.000000"
 preserveAspectRatio="xMidYMid meet">
<metadata>
Created by potrace 1.14, written by Peter Selinger 2001-2017
</metadata>
<g transform="translate(0.000000,1024.000000) scale(0.100000,-0.100000)"
fill="#000000" stroke="none">
<path d="M0 6704 l0 -3535 23 5 22 6 -22 -11 c-25 -13 -31 -54 -10 -62 9 -4 9
-6 0 -6 -10 -1 -13 -318 -13 -1551 l0 -1550 5120 0 5120 0 0 1941 0 1941 -35
41 c-19 22 -35 46 -35 53 0 7 -4 14 -9 16 -5 2 -11 21 -13 43 -3 22 -10 50
-16 61 -6 12 -8 24 -4 28 3 4 0 11 -7 16 -9 5 -14 28 -15 59 -1 28 -4 51 -8
51 -5 0 -8 20 -8 45 0 25 -4 45 -9 45 -7 0 -14 32 -35 155 -22 124 -25 157
-20 184 4 18 2 31 -3 31 -6 0 -8 11 -5 25 2 14 0 25 -4 25 -5 0 -9 12 -10 28
0 15 -3 43 -7 62 -4 19 -10 55 -14 80 -5 34 -8 40 -14 25 -4 -11 -5 11 -3 50
13 173 121 216 242 96 l32 -33 0 581 0 581 -72 -56 c-81 -62 -195 -124 -230
-124 -18 0 -20 -2 -8 -9 8 -6 18 -7 22 -5 4 3 8 0 8 -6 0 -7 -8 -9 -21 -5 -13
5 -19 3 -15 -3 3 -5 -9 -12 -27 -15 -43 -6 -48 0 -9 14 18 6 29 15 26 20 -3 5
7 14 23 19 67 25 102 44 96 53 -3 6 -1 7 6 3 7 -5 20 3 32 18 11 14 26 26 33
26 6 0 41 30 76 67 36 37 58 62 49 55 -9 -6 -20 -8 -24 -4 -5 4 -5 2 -1 -5 8
-14 -47 -46 -59 -35 -4 4 -5 0 -3 -8 7 -19 -9 -50 -24 -50 -9 0 -9 3 0 12 25
25 10 25 -38 2 -27 -13 -55 -24 -61 -24 -5 0 -7 -4 -4 -10 3 -5 0 -7 -9 -4 -8
3 -24 1 -35 -6 -12 -6 -21 -8 -21 -6 0 3 33 21 73 39 39 19 105 55 145 81 l72
47 0 1964 0 1965 -791 0 -791 0 15 -22 c21 -29 188 -282 216 -325 l20 -33 -35
0 c-44 0 -120 39 -160 82 -29 31 -134 192 -134 205 0 3 8 0 18 -8 9 -7 -8 13
-38 44 l-54 57 -3638 0 c-2001 0 -3638 -1 -3638 -3 0 -1 13 -43 29 -94 49
-154 64 -234 52 -266 -12 -30 -86 -82 -140 -97 -62 -17 -64 -14 -122 190 -12
41 -23 83 -25 95 -2 11 -15 54 -27 95 l-24 75 -486 3 -487 2 0 -3536z m8525
3303 c34 -15 83 -46 205 -127 32 -22 82 -37 150 -47 l55 -8 45 -90 c25 -49 48
-92 51 -95 9 -8 39 -90 33 -90 -4 0 -1 -6 5 -14 23 -28 51 -119 41 -131 -7 -9
-5 -16 5 -25 8 -7 15 -18 15 -25 0 -7 9 -24 21 -39 19 -24 18 -31 -5 -27 -5 1
-4 -5 4 -13 7 -9 18 -16 24 -16 6 0 4 5 -4 11 -13 9 -13 10 0 6 8 -2 14 -10
12 -17 -4 -19 83 -106 150 -150 31 -21 54 -41 50 -45 -4 -5 -2 -5 5 -1 7 4 38
-7 70 -23 32 -17 53 -30 46 -31 -6 0 -19 -3 -28 -6 -10 -4 -15 -2 -13 7 2 9
-6 13 -24 13 -19 -1 -25 3 -21 14 5 12 2 12 -17 2 -12 -7 -20 -8 -16 -2 3 5
-1 13 -10 16 -8 3 -12 2 -9 -4 3 -6 3 -10 -1 -10 -19 0 -233 112 -250 131 -19
22 -19 22 3 10 48 -25 38 -7 -40 67 -106 101 -221 216 -208 207 19 -11 12 8
-11 34 -13 14 0 5 29 -21 29 -25 69 -53 90 -63 21 -10 47 -25 57 -34 18 -15
19 -15 13 1 -4 13 -2 16 11 11 32 -11 -72 89 -170 163 -54 41 -126 91 -160
111 -61 36 -143 110 -207 188 -19 22 -30 33 -26 25 4 -8 -14 6 -39 31 -25 26
-47 45 -50 42 -8 -8 -1 21 8 36 6 9 5 12 -1 8 -5 -3 -10 0 -10 7 0 9 7 12 15
8 11 -4 14 -1 10 9 -8 20 47 18 97 -4z m-7564 -768 c7 -18 13 -61 13 -97 1
-51 -3 -67 -16 -76 -14 -8 -21 -7 -35 6 -13 13 -18 40 -21 108 l-4 90 25 0
c18 0 28 -8 38 -31z m8590 -246 c13 -17 13 -17 -6 -3 -11 8 -22 16 -24 17 -2
2 0 3 6 3 6 0 17 -8 24 -17z m-299 -709 c26 -33 57 -68 70 -78 13 -9 16 -14 8
-10 -8 4 -30 19 -47 32 -18 13 -33 20 -33 16 0 -5 -7 -1 -15 9 -7 11 -11 25
-8 33 3 8 -3 25 -14 37 -11 12 -23 29 -27 37 -10 19 2 6 66 -76z m98 -129 c0
-8 -68 36 -81 52 -7 8 8 1 34 -17 26 -17 47 -33 47 -35z m65 -53 c-3 -3 -11 0
-18 7 -9 10 -8 11 6 5 10 -3 15 -9 12 -12z m-75 -2 c0 -5 -2 -10 -4 -10 -3 0
-8 5 -11 10 -3 6 -1 10 4 10 6 0 11 -4 11 -10z m61 -57 c13 -16 12 -17 -3 -4
-10 7 -18 15 -18 17 0 8 8 3 21 -13z m54 -113 c10 -11 16 -20 13 -20 -3 0 -13
9 -23 20 -10 11 -16 20 -13 20 3 0 13 -9 23 -20z m-605 -691 c16 -31 30 -61
30 -65 0 -8 -71 109 -92 151 -20 43 32 -31 62 -86z m560 -229 c-22 -44 -42
-80 -45 -80 -3 0 13 36 35 80 22 44 42 80 45 80 3 0 -13 -36 -35 -80z m36 -49
c-26 -50 -48 -91 -51 -91 -3 0 16 43 42 95 26 52 49 93 51 91 2 -2 -17 -45
-42 -95z m354 56 c0 -2 -12 -14 -27 -28 l-28 -24 24 28 c23 25 31 32 31 24z
m-90 -80 c0 -2 -10 -12 -22 -23 l-23 -19 19 23 c18 21 26 27 26 19z m-423 -59
c-2 -13 -4 -5 -4 17 -1 22 1 32 4 23 2 -10 2 -28 0 -40z m156 -3 c-3 -9 -8
-14 -10 -11 -3 3 -2 9 2 15 9 16 15 13 8 -4z m-48 -74 c-20 -27 -43 -55 -53
-62 -11 -9 -10 -5 4 11 12 14 29 40 40 58 10 17 22 32 27 32 4 0 5 5 1 12 -4
7 -3 8 4 4 8 -4 0 -23 -23 -55z m269 18 c-16 -17 -51 -49 -79 -71 -30 -25 -20
-13 25 30 78 74 105 94 54 41z m-368 -109 c-20 -28 -36 -55 -36 -60 0 -6 -5
-10 -12 -10 -9 0 -9 -3 -1 -11 12 -12 9 -18 -29 -47 -26 -21 15 60 64 125 51
67 62 70 14 3z m234 -4 c0 -2 -19 -19 -42 -36 l-43 -32 40 36 c40 36 45 39 45
32z m-463 -28 c-3 -8 -6 -5 -6 6 -1 11 2 17 5 13 3 -3 4 -12 1 -19z m-672 -68
c10 -11 16 -20 13 -20 -3 0 -13 9 -23 20 -10 11 -16 20 -13 20 3 0 13 -9 23
-20z m1035 16 c0 -2 -8 -10 -17 -17 -16 -13 -17 -12 -4 4 13 16 21 21 21 13z
m-895 -126 c27 -27 47 -50 44 -50 -3 0 -27 23 -54 50 -27 28 -47 50 -44 50 3
0 27 -22 54 -50z m-539 -21 c14 -28 24 -53 22 -55 -2 -2 -16 21 -31 51 -15 30
-25 55 -22 55 3 0 16 -23 31 -51z m564 -56 c0 -8 -9 0 -50 45 l-45 47 48 -45
c26 -24 47 -45 47 -47z m650 52 c0 -2 -10 -9 -22 -15 -22 -11 -22 -10 -4 4 21
17 26 19 26 11z m-480 -142 c0 -6 -118 87 -132 106 -7 8 20 -11 60 -43 39 -32
72 -60 72 -63z m400 97 c-8 -5 -19 -10 -25 -10 -5 0 -3 5 5 10 8 5 20 10 25
10 6 0 3 -5 -5 -10z m-529 -37 c13 -16 12 -17 -3 -4 -10 7 -18 15 -18 17 0 8
8 3 21 -13z m-540 -116 c-10 -9 -11 -8 -5 6 3 10 9 15 12 12 3 -3 0 -11 -7
-18z m-3816 3 c3 -6 -1 -7 -9 -4 -18 7 -21 14 -7 14 6 0 13 -4 16 -10z m5845
-194 c0 -2 -8 -10 -17 -17 -16 -13 -17 -12 -4 4 13 16 21 21 21 13z m-84 -61
c-11 -8 -23 -15 -27 -15 -4 0 -4 -14 1 -31 10 -35 16 -136 8 -144 -15 -15 -35
12 -47 63 -7 31 -17 62 -23 69 -7 8 6 20 44 42 57 33 75 39 44 16z m-1495
-138 c-10 -9 -11 -8 -5 6 3 10 9 15 12 12 3 -3 0 -11 -7 -18z m69 19 c0 -2 -8
-10 -17 -17 -16 -13 -17 -12 -4 4 13 16 21 21 21 13z m703 -13 c-13 -2 -33 -2
-45 0 -13 2 -3 4 22 4 25 0 35 -2 23 -4z m-768 -63 c-16 -17 -33 -30 -39 -30
-5 0 5 16 24 35 18 19 36 32 39 30 2 -3 -8 -19 -24 -35z m-2555 -34 c0 -2 -8
-10 -17 -17 -16 -13 -17 -12 -4 4 13 16 21 21 21 13z m-5673 -361 c53 -88 155
-250 228 -360 73 -110 140 -216 150 -235 25 -50 9 -31 -34 39 -20 34 -79 125
-132 203 -77 115 -230 361 -327 528 -13 24 -13 24 2 5 10 -11 60 -92 113 -180z
m7653 161 c0 -2 -8 -10 -17 -17 -16 -13 -17 -12 -4 4 13 16 21 21 21 13z
m-100 -119 c0 -2 -12 -14 -27 -28 l-28 -24 24 28 c23 25 31 32 31 24z m1105
-29 c30 -27 90 -198 69 -198 -7 0 -16 5 -20 11 -3 6 -15 9 -25 6 -10 -3 -17
-2 -16 3 1 4 -25 28 -58 53 -61 46 -108 91 -89 85 6 -2 25 12 41 30 36 38 62
40 98 10z m-125 -103 c24 -29 24 -29 2 -10 -13 11 -28 29 -34 40 -11 21 -8 18
32 -30z m125 -102 c39 -20 73 -41 77 -48 4 -7 24 -16 45 -20 27 -5 33 -9 22
-16 -11 -7 -10 -9 6 -10 11 0 0 -7 -25 -15 -85 -28 -252 1 -378 65 -23 12 -42
24 -42 26 0 3 22 -6 50 -20 58 -29 70 -31 70 -9 0 12 8 14 38 10 20 -3 64 -8
97 -11 56 -5 54 -4 -28 14 -95 21 -136 41 -138 69 -1 9 -3 34 -5 55 -3 35 -1
38 18 31 16 -5 19 -3 12 7 -4 8 19 -10 51 -39 33 -30 92 -70 130 -89z m484 55
c-16 -30 -119 -128 -158 -151 -43 -25 -39 -15 7 15 43 29 116 100 139 135 20
29 27 30 12 1z m-859 -14 c0 -2 -9 0 -20 6 -11 6 -20 13 -20 16 0 2 9 0 20 -6
11 -6 20 -13 20 -16z m759 -40 c-13 -14 -33 -30 -44 -36 -11 -6 -2 6 20 25 47
43 58 48 24 11z m-872 -56 c-2 -13 -4 -5 -4 17 -1 22 1 32 4 23 2 -10 2 -28 0
-40z m104 -15 c13 -16 12 -17 -3 -4 -10 7 -18 15 -18 17 0 8 8 3 21 -13z m552
-85 c-2 -5 -14 -8 -26 -8 -13 0 -17 -3 -11 -8 15 -9 61 -144 80 -236 17 -81
13 -145 -10 -181 -25 -38 -70 -76 -84 -70 -7 3 -11 1 -8 -4 7 -10 -17 -21 -44
-21 -24 0 -57 42 -72 91 -6 22 -15 39 -19 39 -5 0 -6 7 -3 15 4 8 2 15 -2 15
-5 0 -9 12 -10 28 -1 38 -14 104 -25 123 -4 9 -10 27 -13 40 -2 13 -14 48 -25
77 -12 30 -19 58 -16 63 4 5 -2 9 -12 10 -11 0 -13 3 -5 6 9 3 10 9 3 17 -8
10 25 12 148 12 88 -1 157 -4 154 -8z m-4603 -43 c0 -6 -76 -45 -87 -45 -4 1
12 12 37 25 50 27 50 27 50 20z m1544 -309 c7 -39 -1 -86 -15 -86 -19 0 -28
47 -17 89 12 47 23 46 32 -3z m-677 -71 c-7 -13 -14 -20 -15 -14 -2 5 2 16 8
24 18 21 20 18 7 -10z m-4803 -155 c-70 -77 -128 -140 -131 -140 -2 0 2 10 9
23 7 12 11 25 10 29 -1 3 5 12 13 18 8 7 15 17 15 22 0 6 -6 6 -14 -1 -10 -9
-15 -8 -19 3 -9 24 15 31 32 10 14 -18 19 -15 109 78 52 54 97 98 99 98 2 0
-53 -63 -123 -140z m4857 25 l10 -20 -16 20 c-9 11 -21 29 -26 40 l-10 20 16
-20 c9 -11 21 -29 26 -40z m779 -28 c0 -2 -10 -12 -22 -23 l-23 -19 19 23 c18
21 26 27 26 19z m-5642 -64 c-20 -21 -41 -48 -47 -60 -7 -14 -17 -20 -26 -17
-8 4 -15 2 -15 -4 0 -5 -8 -13 -17 -16 -10 -3 16 26 57 64 82 76 104 91 48 33z
m6370 -95 c-13 -18 -50 -60 -83 -94 -59 -60 -60 -60 -10 -5 28 31 64 73 79 94
35 45 46 50 14 5z m-6491 -155 c-3 -10 -5 -4 -5 12 0 17 2 24 5 18 2 -7 2 -21
0 -30z m6282 -88 c-34 -41 -64 -75 -67 -75 -3 0 1 8 9 18 84 101 111 132 115
132 2 0 -23 -34 -57 -75z m-6299 23 c-16 -30 -60 -77 -85 -90 -11 -6 -1 6 21
25 23 20 47 50 54 67 7 17 15 29 17 26 3 -2 -1 -15 -7 -28z m6230 -111 c0 -2
-10 -12 -22 -23 l-23 -19 19 23 c18 21 26 27 26 19z m-6476 -42 c-9 -14 -18
-25 -21 -25 -5 0 5 18 20 38 17 22 18 13 1 -13z m6378 -72 c-73 -83 -167 -181
-131 -139 53 65 182 206 186 206 3 0 -22 -30 -55 -67z m-6413 -158 c0 -5 -4
-3 -9 5 -5 8 -9 22 -9 30 0 16 17 -16 18 -35z m5159 -12 c5 -17 -26 -29 -40
-15 -6 6 -7 15 -3 22 9 14 37 9 43 -7z m-5068 -148 c64 -108 62 -105 56 -105
-6 0 -146 235 -146 246 0 9 5 3 90 -141z m6160 132 c0 -2 -15 -16 -32 -33
l-33 -29 29 33 c28 30 36 37 36 29z m-584 -38 c10 -17 -13 -36 -27 -22 -12 12
-4 33 11 33 5 0 12 -5 16 -11z m474 -84 c-24 -25 -46 -45 -49 -45 -3 0 15 20
39 45 24 25 46 45 49 45 3 0 -15 -20 -39 -45z m2068 -20 c1 -25 -2 -45 -6 -45
-4 0 -6 -20 -4 -44 4 -43 -19 -111 -61 -184 -34 -58 -27 -29 14 53 33 69 39
88 37 142 -1 53 -3 60 -15 45 -7 -9 -3 4 10 30 12 27 22 48 22 48 1 0 2 -20 3
-45z m-2118 -39 c0 -2 -8 -10 -17 -17 -16 -13 -17 -12 -4 4 13 16 21 21 21 13z
m-5901 -146 c0 -8 -8 5 -19 29 -11 24 -20 46 -20 50 1 12 39 -64 39 -79z
m8159 29 c48 -17 92 -31 97 -32 6 0 10 -15 10 -33 -1 -18 2 -31 6 -29 4 3 12
-2 19 -10 10 -13 8 -15 -13 -15 -14 0 -28 4 -31 9 -8 13 -47 2 -71 -19 -11
-10 -44 -25 -73 -34 -46 -13 -54 -13 -59 -1 -3 8 -14 15 -24 15 -10 0 -19 5
-19 11 0 5 5 7 12 3 8 -5 9 -2 5 9 -7 18 33 157 46 157 4 0 46 -14 95 -31z
m-8157 -72 c-10 -9 -11 -8 -5 6 3 10 9 15 12 12 3 -3 0 -11 -7 -18z m7860 -30
c-10 -9 -11 -8 -5 6 3 10 9 15 12 12 3 -3 0 -11 -7 -18z m-7889 -30 c-16 -19
-110 -65 -147 -72 -16 -3 -6 4 23 14 52 20 114 57 121 74 1 4 6 6 8 3 3 -3 1
-12 -5 -19z m5728 20 c0 -2 -12 -14 -27 -28 l-28 -24 24 28 c23 25 31 32 31
24z m2710 -18 c25 -5 71 -12 104 -15 42 -4 87 -20 160 -56 97 -48 98 -54 6
-33 -23 5 -23 5 -3 -4 12 -5 27 -19 33 -31 11 -20 10 -21 -12 -9 -22 12 -22
11 -8 -6 8 -10 10 -16 4 -12 -7 4 -53 9 -103 12 -107 5 -221 23 -238 37 -7 6
-13 7 -13 3 0 -19 -38 43 -43 70 -7 37 16 66 46 58 12 -2 42 -9 67 -14z m-510
-59 c-12 -16 -24 -30 -26 -30 -3 0 4 14 16 30 12 17 24 30 26 30 3 0 -4 -13
-16 -30z m-2338 -77 c-33 -38 -86 -93 -118 -123 -32 -30 -6 0 57 67 124 134
157 163 61 56z m-5817 37 c-27 -12 -43 -12 -25 0 8 5 22 9 30 9 10 0 8 -3 -5
-9z m9635 -200 c18 -12 2 -12 -25 0 -13 6 -15 9 -5 9 8 0 22 -4 30 -9z"/>
<path d="M9236 8265 c4 -8 10 -12 15 -9 11 6 2 24 -11 24 -5 0 -7 -7 -4 -15z"/>
<path d="M8978 5183 c6 -2 18 -2 25 0 6 3 1 5 -13 5 -14 0 -19 -2 -12 -5z"/>
<path d="M479 4433 c-13 -16 -12 -17 4 -4 16 13 21 21 13 21 -2 0 -10 -8 -17
-17z"/>
<path d="M5280 3730 c0 -5 5 -10 11 -10 5 0 7 5 4 10 -3 6 -8 10 -11 10 -2 0
-4 -4 -4 -10z"/>
<path d="M5790 3670 c0 -5 5 -10 10 -10 6 0 10 5 10 10 0 6 -4 10 -10 10 -5 0
-10 -4 -10 -10z"/>
<path d="M10209 6233 c-13 -16 -12 -17 4 -4 16 13 21 21 13 21 -2 0 -10 -8
-17 -17z"/>
</g>
</svg>
